<svg width="543" height="450" version="1.1" viewBox="0 0 543 450" xmlns="http://www.w3.org/2000/svg" xmlns:xlink="http://www.w3.org/1999/xlink"><title>Artboard</title><desc>Created with Sketch.</desc><g id="a" transform="translate(-189 -301)" fill="none" fill-rule="evenodd"><path d="m226 495c146-64 243-105 292-126 139-58 168-68 187-68 4.1-0.073 13 0.95 19 5.8 5.1 4.1 6.5 9.6 7.1 14s1.5 13 0.84 20c-7.5 79-40 271-57 359-7 37-21 50-34 51-29 2.7-51-19-79-38-44-29-69-47-112-75-49-33-17-50 11-80 7.4-7.6 135-124 138-135 0.31-1.3 0.6-6.2-2.3-8.8s-7.2-1.7-10-1c-4.4 1-75 47-211 139-20 14-38 20-54 20-18-0.39-52-10-78-18-31-10-56-16-54-33 1.1-9 14-18 37-28z" fill="#fff"/></g></svg>
