<svg width="148mm" height="148mm" version="1.1" viewBox="0 0 558 561" xml:space="preserve" xmlns="http://www.w3.org/2000/svg"><defs><clipPath id="b"><path d="m0 1067h1280v-1067h-1280z"/></clipPath><clipPath id="a"><path d="m0 1067h1280v-1067h-1280z"/></clipPath></defs><g transform="matrix(1.3 0 0 -1.3 -574 989)"><g clip-path="url(#b)"/><g clip-path="url(#a)"><g transform="translate(736 489)"><path d="m0 0c-5.2 2.6-31 15-36 17-4.8 1.7-8.2 2.6-12-2.6-3.5-5.2-13-17-17-20-3-3.5-6.1-3.9-11-1.3-5.2 2.6-22 8.1-42 26-15 14-26 31-29 36-3 5.2-0.32 8 2.3 11 2.3 2.3 5.2 6.1 7.8 9.1 2.6 3 3.5 5.2 5.2 8.7 1.7 3.5 0.87 6.5-0.44 9.1-1.3 2.6-12 28-16 39-4.2 10-8.5 8.8-12 8.9-3 0.15-6.5 0.18-10 0.18-3.5 0-9.1-1.3-14-6.5-4.8-5.2-18-18-18-43 0-26 19-50 21-54 2.6-3.5 37-56 89-79 12-5.4 22-8.6 30-11 12-4 24-3.4 33-2.1 10 1.5 31 13 35 25 4.3 12 4.3 23 3 25-1.3 2.2-4.8 3.5-10 6.1m-95-130h-0.07c-31 0.012-62 8.4-88 24l-6.3 3.8-66-17 18 64-4.1 6.6c-17 28-27 59-27 92 0.038 96 78 173 173 173 46-0.016 90-18 123-51 33-33 51-76 51-123-0.039-96-78-173-173-173m148 321c-39 39-92 61-148 61-115 0-209-94-209-209-0.015-37 9.6-73 28-104l-30-108 111 29c30-17 65-25 100-25h0.086c115 0 209 94 209 209 0.021 56-22 108-61 148" style="fill-rule:evenodd"/></g></g></g></svg>
