<svg width="161.89" height="113.39" version="1.1" viewBox="0 0 161.89 113.39" xml:space="preserve" xmlns="http://www.w3.org/2000/svg" xmlns:cc="http://creativecommons.org/ns#" xmlns:dc="http://purl.org/dc/elements/1.1/" xmlns:rdf="http://www.w3.org/1999/02/22-rdf-syntax-ns#"><metadata><rdf:RDF><cc:Work rdf:about=""><dc:format>image/svg+xml</dc:format><dc:type rdf:resource="http://purl.org/dc/dcmitype/StillImage"/><dc:title/></cc:Work></rdf:RDF></metadata><g transform="matrix(1.3333 0 0 -1.3333 0 113.39)"><g transform="scale(.1)"><path d="m485.94 242.97v364.46l315.62-182.23zm703.52 474.64c-13.97 52.266-55.13 93.434-107.4 107.4-94.744 25.387-474.64 25.387-474.64 25.387s-379.89 0-474.63-25.387c-52.266-13.969-93.434-55.137-107.4-107.4-25.387-94.742-25.387-292.41-25.387-292.41s0-197.67 25.387-292.41c13.969-52.262 55.137-93.434 107.4-107.4 94.742-25.395 474.63-25.395 474.63-25.395s379.89 0 474.64 25.395c52.27 13.965 93.43 55.137 107.4 107.4 25.39 94.738 25.39 292.41 25.39 292.41s0 197.66-25.39 292.41" style="fill:#fff"/></g></g></svg>
