<?xml version="1.0" encoding="UTF-8" standalone="no"?>
<!-- Created with Inkscape (http://www.inkscape.org/) -->

<svg
   width="512"
   height="512"
   viewBox="0 0 512 512"
   version="1.1"
   id="svg5"
   inkscape:version="1.1.1 (3bf5ae0d25, 2021-09-20)"
   sodipodi:docname="matrix_logo.svg"
   xmlns:inkscape="http://www.inkscape.org/namespaces/inkscape"
   xmlns:sodipodi="http://sodipodi.sourceforge.net/DTD/sodipodi-0.dtd"
   xmlns="http://www.w3.org/2000/svg"
   xmlns:svg="http://www.w3.org/2000/svg">
  <sodipodi:namedview
     id="namedview7"
     pagecolor="#505050"
     bordercolor="#ffffff"
     borderopacity="1"
     inkscape:pageshadow="0"
     inkscape:pageopacity="0"
     inkscape:pagecheckerboard="1"
     inkscape:document-units="px"
     showgrid="false"
     inkscape:snap-bbox="true"
     inkscape:bbox-paths="true"
     inkscape:bbox-nodes="true"
     inkscape:snap-bbox-edge-midpoints="true"
     inkscape:snap-bbox-midpoints="true"
     inkscape:object-paths="true"
     inkscape:snap-intersection-paths="true"
     inkscape:snap-smooth-nodes="true"
     inkscape:snap-midpoints="true"
     inkscape:snap-object-midpoints="true"
     inkscape:snap-center="true"
     inkscape:snap-text-baseline="true"
     inkscape:snap-grids="true"
     showguides="true"
     inkscape:guide-bbox="true"
     inkscape:zoom="1.1490485"
     inkscape:cx="326.79212"
     inkscape:cy="318.95955"
     inkscape:window-width="1920"
     inkscape:window-height="1017"
     inkscape:window-x="760"
     inkscape:window-y="-8"
     inkscape:window-maximized="1"
     inkscape:current-layer="layer1">
    <sodipodi:guide
       position="0,512"
       orientation="0,512"
       id="guide17" />
    <sodipodi:guide
       position="512,512"
       orientation="512,0"
       id="guide19" />
    <sodipodi:guide
       position="512,0"
       orientation="0,-512"
       id="guide21" />
    <sodipodi:guide
       position="0,0"
       orientation="-512,0"
       id="guide23" />
    <sodipodi:guide
       position="97.550056,256"
       orientation="0,-1"
       id="guide25" />
  </sodipodi:namedview>
  <defs
     id="defs2" />
  <g
     inkscape:label="Ebene 1"
     inkscape:groupmode="layer"
     id="layer1">
    <path
       id="text7"
       style="fill:#ffffff;stroke-width:0.134243"
       d="m 0,24.566348 v 35.037187 392.792915 35.0372 h 35.0372 82.82751 v -35.0372 H 35.0372 V 59.603535 h 82.82751 V 24.566348 H 35.0372 Z m 394.1353,0 v 35.037187 h 82.8275 V 452.39645 h -82.8275 v 35.0372 H 512 V 452.39645 59.603535 24.566348 H 476.9628 Z M 224.38645,173.22863 c -27.68059,0 -47.01327,13.18113 -58.43701,34.71053 V 178.06158 H 101.80073 V 380.1741 h 64.14871 V 257.14916 c 0,-24.60495 11.86315,-37.34684 29.8775,-37.34684 18.01434,0 25.48377,13.18121 25.48377,37.34684 V 380.1741 h 66.78502 V 257.14916 c 0,-24.60495 11.86316,-37.34684 29.8775,-37.34684 18.01434,0 25.48379,13.18121 25.48379,37.34684 V 380.1741 h 66.785 V 250.11905 c 0,-48.77067 -16.69636,-76.89042 -63.70953,-76.89042 -27.6806,0 -49.64925,12.30221 -64.14862,33.3922 -8.34818,-21.96873 -26.80176,-33.3922 -57.99742,-33.3922 z" />
  </g>
</svg>
